PathFileType	4	(X/Y/Z)	Patient4_TMGait_0pt4_02_left_01.trc.trc
DataRate	CameraRate	NumFrames	NumMarkers	Units	OrigDataRate	OrigDataStartFrame	OrigNumFrames
73.684210526316	73.684210526316	5	33	mm	73.684210526316	89	       141
Frame#	Time	Sacral			L.Shoulder			Chest			R.Shoulder			Neck			R.ASIS			L.ASIS			R.Thigh.Superior			R.Thigh.Lateral			R.Thigh.Inferior			R.Patella			L.Thigh.Superior			L.Thigh.Lateral			L.Thigh.Inferior			L.Patella			L.Shank.Superior			L.Shank.Lateral			L.Shank.Inferior			R.Shank.Superior			R.Shank.Lateral			R.Shank.Inferior			R.Heel			R.Midfoot.Superior			R.Midfoot.Lateral			R.Toe			L.Heel			L.Midfoot.Lateral			L.Midfoot.Superior			L.Toe			L.Elbow			L.Wrist			R.Elbow			R.Wrist			
		X1	Y1	Z1	X2	Y2	Z2	X3	Y3	Z3	X4	Y4	Z4	X5	Y5	Z5	X6	Y6	Z6	X7	Y7	Z7	X8	Y8	Z8	X9	Y9	Z9	X10	Y10	Z10	X11	Y11	Z11	X12	Y12	Z12	X13	Y13	Z13	X14	Y14	Z14	X15	Y15	Z15	X16	Y16	Z16	X17	Y17	Z17	X18	Y18	Z18	X19	Y19	Z19	X20	Y20	Z20	X21	Y21	Z21	X22	Y22	Z22	X23	Y23	Z23	X24	Y24	Z24	X25	Y25	Z25	X26	Y26	Z26	X27	Y27	Z27	X28	Y28	Z28	X29	Y29	Z29	X30	Y30	Z30	X31	Y31	Z31	X32	Y32	Z32	X33	Y33	Z33	

89	2.384285714286	884.358046086340	995.656077120228	477.351481082386	1054.716882726446	1432.637882404725	299.882635475528	1149.142508682136	1370.836841353805	468.631092625730	1048.563927490883	1439.647110357311	635.522184303691	1022.998958128977	1493.732815754353	455.051286870474	1113.979754203106	946.085933915148	603.127093801810	1106.135388239717	963.413547637697	327.605413061840	1170.607257055304	748.240202936934	572.001093231813	1097.730832887883	634.143054455592	633.742352697747	1178.814541469888	586.450323016672	553.859602261405	1186.142713671422	497.591239689094	561.023563266030	1141.191217173781	739.731005372107	349.332010256208	1049.198932983463	628.447496871143	281.102730214905	1132.625387608963	542.183363803329	337.755222806782	1124.850664182035	460.267027116467	334.833076521015	1064.075036238785	399.868812521197	328.904089388382	930.893778106434	337.727209343655	280.179902535593	934.349314189988	209.029469814912	338.364399301608	1158.723575278510	407.772176881804	570.227997927448	1090.716894879636	304.130937992935	635.294627739413	1133.023635221333	208.478190478387	573.572617897027	1002.491573427079	42.959473374307	549.806768474859	1173.215292277635	98.082844155374	583.155474711731	1086.608224590730	37.681217686248	623.604315153483	1294.501959296761	45.815939997475	609.811831760618	758.106082033842	107.400916351051	377.310860794595	824.949047903206	74.462107945808	299.302712943552	923.146158055062	109.230114018039	321.244881597467	1026.185852765262	35.527625692519	298.329170148753	1082.843252831838	1086.476353708855	170.110939930174	1252.877018397214	885.183927412263	159.639372308380	993.931799980283	1100.858688409884	762.559470765706	1145.931249632479	889.195366324874	757.939148015810	
90	2.397857142857	884.490826378836	995.891392089819	481.722506822144	1053.147368027683	1432.817705491983	302.799927828625	1149.445492645569	1371.024610728808	470.530238476675	1050.805384867205	1439.935559528109	638.484988434418	1023.114237686314	1493.944516492667	458.187728632099	1115.101809402539	946.476810269247	605.452432366248	1104.849164357043	963.459670533040	330.087506372746	1169.898527679080	747.597676799931	574.992138697392	1095.474374961414	633.903150465020	635.975135462723	1176.287465830089	585.842936352474	556.161657159502	1182.609265349618	497.043337706303	562.592598610978	1146.011906271662	742.209955579695	351.812111094573	1058.777491513336	628.651610679686	282.187592902606	1145.194165399270	544.320363289228	338.492644696460	1138.688404029051	461.180134170586	334.633135396650	1075.776928287082	400.820721447625	328.855567624952	940.265325323478	343.606915225918	280.475724396690	939.517831086272	214.643287991593	337.792453798162	1155.009076690014	407.329100949912	571.494148307136	1086.671507060936	303.750330042025	636.128251771137	1128.401211492556	208.180713466215	574.004699992252	997.024378285584	42.954328435870	549.889349064597	1167.823220142687	97.986667912669	583.336890786835	1081.127574865323	37.644876846602	623.731351500952	1289.090439077760	45.485290400248	610.069102808976	759.339239528174	122.329099739676	376.859363555776	823.943508770599	84.802154285237	299.080881783853	924.048372226743	113.380641086000	320.595437408450	1021.125954094355	34.517231639965	298.580752536929	1077.040209874568	1085.627109735302	174.514353104793	1237.984931798865	877.128396955482	161.449736127725	1000.029955557394	1101.789588921421	768.474564088283	1160.061454049199	896.675886568061	759.901601760955	
91	2.411428571429	884.386071729911	996.040027145867	485.991841227712	1051.450891947570	1432.817298177076	305.517553920956	1149.643075201949	1371.058062303649	472.206087910207	1053.016068035658	1440.116425776966	641.233482956281	1023.202824017888	1494.037688524774	461.115907444399	1115.982029769622	946.735618407783	607.651270134545	1103.255049134379	963.252804056715	332.491005832354	1169.006974766349	746.935817167076	577.680175163773	1093.317383081059	633.637963798333	638.157062209462	1173.678615993006	585.227036723285	558.242414395368	1179.021660989393	496.470375043592	564.100484587242	1150.626992744057	744.876273816730	354.095642234685	1068.285070936349	629.216450035308	283.099875699826	1157.584067532134	547.020680762903	339.102946645255	1152.537499780668	462.772069563384	334.483757397123	1087.765079307962	402.283064005222	328.814597092820	950.174097151698	349.830009834341	280.757191730904	945.353093230946	220.762765829600	337.407747179984	1151.258406946522	406.841593466946	572.722768740070	1082.581167391715	303.326767136319	636.974427248544	1123.706760839792	207.839805541801	574.409941173700	991.457403736703	42.930718894153	549.970290213989	1162.347673933451	97.850919253579	583.474186419868	1075.553629493133	37.593276916119	623.858127040837	1283.589788426544	45.138561646073	610.272563524372	761.670791654442	138.028159470699	376.704902888314	823.775024849736	96.102475375943	299.056101659951	925.577148358089	118.178598466375	320.209481395127	1016.350991010439	33.455082806125	298.833843091948	1070.970354767680	1084.665171682308	178.685463386958	1222.519346258742	869.427061516356	163.448406038390	1006.361493952140	1102.716643288247	774.328515336159	1174.425495009299	904.834829228236	761.518649487140	
92	2.425000000000	884.061023299044	996.133541262062	490.120786165533	1049.674346407140	1432.670374747315	308.021061916336	1149.743243747384	1370.968850462784	473.664078846250	1055.163028373786	1440.217151148036	643.751306488458	1023.273978632468	1494.041295895131	463.811521331190	1116.623651969400	946.860944885569	609.727125547102	1101.432659712806	962.859337994480	334.807654207529	1167.983091176043	746.284059152474	579.997035204430	1091.343899825270	633.366100324344	640.262043407863	1171.057044269464	584.615234777883	560.063976425083	1175.460192206036	495.879489680731	565.521707376403	1154.914908331200	747.745771119645	356.163574822649	1077.433761700803	630.202215705999	283.875384428660	1169.497075409745	550.309781678841	339.569687692430	1166.103001081726	465.070134399830	334.345067436527	1099.757908481472	404.289848197765	328.776225713878	960.335395960588	356.289502286789	281.076945828232	951.736835038155	227.232378640568	337.249399248260	1147.531923218192	406.320928971137	573.894530216272	1078.505597081324	302.881251954916	637.825937888267	1118.990739451050	207.470881055924	574.788664700747	985.844666845978	42.897156027644	550.058970910921	1156.834119198979	97.699173369542	583.582193769429	1069.937182305077	37.536754050198	623.991545710353	1278.044855455742	44.809504132033	610.432154719895	765.091018772074	153.921584006118	376.937213729629	824.531576482821	107.957263338081	299.286364791334	927.774861597531	123.517739844200	320.097841819342	1012.151368568167	32.424005695013	299.022532107927	1064.606975683670	1083.621396947046	182.631735799197	1206.560810071693	862.164445080135	165.658795387837	1012.960088386118	1103.640783313963	780.033454402595	1188.955160199523	913.669840494044	762.756903970571	
93	2.438571428571	883.539208575320	996.217175530790	494.086922635869	1047.868524048136	1432.425519499339	310.305034001804	1149.761290811906	1370.801976593284	474.916543719282	1057.224630591925	1440.282216977874	646.029328104842	1023.339449137699	1493.996569679992	466.257589576979	1117.037981557004	946.864770699458	611.687072464784	1099.454506458367	962.371526676094	337.032959345901	1166.863575008172	745.661089376596	581.932233796103	1089.560067663392	633.101653307120	642.260393793294	1168.452950449417	584.015641865186	561.621781143584	1171.959303268672	495.281883015683	566.829754206846	1158.775687716346	750.834151968470	358.021787258526	1085.976159233281	631.646487096084	284.552619661295	1180.689412917319	554.185294795245	339.880258957509	1179.125658815893	468.070914234237	334.166387905243	1111.503226239165	406.849192188597	328.721699973561	970.484075344370	362.842426356995	281.481529069628	958.583063799709	233.846011537769	337.325028162954	1143.849867935169	405.783592485154	574.988563052442	1074.466525929407	302.436465759794	638.665511082162	1114.279991066096	207.092289207359	575.139762594761	980.228507680822	42.860852369995	550.160256218450	1151.316615058798	97.549955331991	583.672987475730	1064.317335203145	37.483134823648	624.133469996690	1272.489674879682	44.522832238197	610.559013731987	769.585774574354	169.316607938663	377.618089905209	826.326210357645	119.837262467733	299.804239679953	930.741755254530	129.214577946705	320.231282429740	1008.930329072614	31.534363042553	299.060342727018	1057.925727733405	1082.546602145384	186.373023572765	1190.193615623205	855.421903269531	168.100464896966	1019.850898985821	1104.580393423887	785.497592840588	1203.575211259291	923.182506880844	763.581487324512	
